<svg width="35" height="35" viewBox="0 0 35 35" fill="none" xmlns="http://www.w3.org/2000/svg">
<path d="M27.0596 8.16295L29.8474 8.07486V17.9404H26.4844L27.0596 8.16295Z" fill="#FFA132"/>
<ellipse cx="18.475" cy="25.1634" rx="3.31877" ry="4.2281" fill="#FFA132"/>
<path d="M12.3866 11.3781C12.3866 13.7132 10.768 13.3159 8.93511 13.3159C7.1022 13.3159 5.88184 12.6993 5.88184 11.8625C5.88184 9.52742 7.23495 9.21997 9.06786 9.21997C10.9008 9.21997 12.3866 9.04295 12.3866 11.3781Z" fill="#FFA132"/>
<path d="M4.23293 3.79129C4.06958 3.88233 3.85397 4.07743 3.74289 4.227L3.54688 4.50664V7.99234V11.4846L3.71675 11.9203C4.33094 13.4875 5.65077 14.528 7.23849 14.6906L7.66319 14.7361L7.69586 22.605L7.72853 30.4738L7.87227 30.708C7.95721 30.838 8.1467 31.0266 8.29697 31.1307C8.53872 31.2998 8.62366 31.3193 9.06797 31.3193C9.50573 31.3193 9.59721 31.2998 9.82589 31.1437C9.9631 31.0461 10.1526 30.8575 10.2441 30.721L10.4074 30.4803L10.4401 22.6115L10.4727 14.7361L10.8974 14.6906C12.5244 14.528 13.9487 13.364 14.4453 11.8097C14.5891 11.361 14.5891 11.2895 14.5891 7.93382V4.51314L14.4126 4.25952C14.1252 3.85632 13.8246 3.68724 13.3215 3.66122C12.7857 3.63521 12.4002 3.8108 12.1062 4.227L11.9102 4.50664L11.8775 6.13894L11.8448 7.77774H11.1588H10.4727L10.4401 6.14544C10.4074 4.53915 10.4074 4.51314 10.2441 4.27903C9.96964 3.86933 9.63641 3.68724 9.13984 3.66122C8.60406 3.63521 8.21857 3.8108 7.92454 4.227L7.72853 4.50664L7.69586 6.13894L7.66319 7.77774H6.97714H6.29109L6.25842 6.14544L6.22575 4.51314L6.04933 4.25952C5.76185 3.85632 5.46129 3.68724 4.95818 3.66122C4.59882 3.64172 4.47468 3.66773 4.23293 3.79129ZM11.8122 10.7367C11.8122 11.1334 11.492 11.5691 11.0281 11.8162C10.819 11.9268 10.6361 11.9398 9.06797 11.9398C7.42144 11.9398 7.32343 11.9333 7.07515 11.7967C6.63085 11.5626 6.32376 11.1269 6.32376 10.7367V10.5416H9.06797H11.8122V10.7367Z" fill="white"/>
<path d="M17.7772 3.79129C17.6138 3.88233 17.3982 4.07743 17.2872 4.227L17.0911 4.50664L17.0585 11.7577L17.0258 19.0087L16.477 19.1713C15.1049 19.5615 14.079 20.3809 13.5041 21.532C13.001 22.553 12.916 22.9757 12.916 24.4584C12.916 25.5444 12.9356 25.8046 13.0532 26.2793C13.6935 28.796 15.1114 30.5129 17.0911 31.1697C17.4766 31.2932 17.6857 31.3193 18.4306 31.3193C19.1754 31.3193 19.3845 31.2932 19.77 31.1697C21.7498 30.5129 23.1676 28.796 23.8079 26.2793C23.9255 25.8046 23.9451 25.5444 23.9451 24.4584C23.9451 23.3659 23.9255 23.1187 23.8014 22.67C23.3113 20.8686 22.1418 19.6721 20.3842 19.1713L19.8353 19.0087L19.8027 11.7642L19.77 4.51314L19.5936 4.25952C19.3061 3.85632 19.0056 3.68724 18.5024 3.66123C18.1431 3.64172 18.0189 3.66773 17.7772 3.79129ZM19.7177 21.8571C20.4495 22.1042 20.9265 22.67 21.1094 23.4894C21.2336 24.0552 21.1617 25.4729 20.9788 26.0517C20.639 27.1182 19.9922 28.0156 19.293 28.3668C18.8553 28.5879 18.0124 28.5944 17.5812 28.3733C16.8363 27.9896 16.2352 27.1572 15.8693 26.0192C15.7386 25.59 15.719 25.4014 15.719 24.4584C15.719 23.4114 15.7256 23.3789 15.9085 22.9757C16.2352 22.2733 16.9017 21.8181 17.7772 21.7011C17.7772 21.7011 19.3126 21.7271 19.7177 21.8571Z" fill="white"/>
<path d="M30.3748 3.76528C29.5384 4.20099 28.2447 5.38457 27.4476 6.43158C25.4613 9.06537 24.3048 12.7852 24.037 17.435C23.9389 19.1388 23.9847 19.3924 24.4355 19.8411C24.8733 20.2769 24.9909 20.2964 27.4737 20.2964H29.6038V25.3233V30.3568L29.7541 30.6299C29.8325 30.786 30.0285 31.0006 30.1853 31.1177C30.4401 31.2998 30.5054 31.3193 30.9694 31.3193C31.4137 31.3193 31.5051 31.2998 31.7338 31.1437C31.871 31.0461 32.0605 30.8575 32.152 30.721L32.3153 30.4803V17.5V4.51314L32.1389 4.25952C31.8514 3.84982 31.5509 3.68724 31.0478 3.66122C30.7211 3.64822 30.5577 3.66773 30.3748 3.76528ZM29.6038 12.8827V17.5H28.2186H26.84L26.8857 16.8302C27.0033 15.0418 27.4411 12.8827 28.0095 11.2895C28.3885 10.2359 29.4078 8.26548 29.5711 8.26548C29.5907 8.26548 29.6038 10.34 29.6038 12.8827Z" fill="white"/>
</svg>
