<svg width="68" height="68" viewBox="0 0 68 68" fill="none" xmlns="http://www.w3.org/2000/svg">
<path d="M53.1212 15.326L58.6968 15.1498V34.8809H51.9707L53.1212 15.326Z" fill="white"/>
<ellipse cx="35.952" cy="49.3269" rx="6.63755" ry="8.4562" fill="white"/>
<path d="M23.7742 21.7562C23.7742 26.4264 20.537 25.6319 16.8712 25.6319C13.2054 25.6319 10.7646 24.3987 10.7646 22.7251C10.7646 18.0549 13.4709 17.44 17.1367 17.44C20.8025 17.44 23.7742 17.0859 23.7742 21.7562Z" fill="white"/>
<path d="M7.46683 6.58261C7.14014 6.7647 6.70891 7.15489 6.48676 7.45403L6.09473 8.01331V14.9847V21.9691L6.43449 22.8406C7.66285 25.9751 10.3025 28.0561 13.478 28.3813L14.3274 28.4723L14.3927 44.21L14.458 59.9477L14.7455 60.416C14.9154 60.6761 15.2944 61.0533 15.5949 61.2614C16.0784 61.5995 16.2483 61.6385 17.1369 61.6385C18.0124 61.6385 18.1954 61.5995 18.6528 61.2874C18.9272 61.0923 19.3061 60.7151 19.4891 60.442L19.8158 59.9607L19.8811 44.223L19.9465 28.4723L20.7959 28.3813C24.0497 28.0561 26.8985 25.728 27.8916 22.6195C28.1791 21.722 28.1791 21.5789 28.1791 14.8677V8.02631L27.8263 7.51907C27.2513 6.71267 26.6502 6.3745 25.644 6.32248C24.5724 6.27045 23.8014 6.62163 23.2134 7.45403L22.8213 8.01331L22.756 11.2779L22.6907 14.5555H21.3186H19.9465L19.8811 11.2909C19.8158 8.07834 19.8158 8.02631 19.4891 7.55808C18.9402 6.73868 18.2738 6.3745 17.2807 6.32248C16.2091 6.27045 15.4381 6.62163 14.8501 7.45403L14.458 8.01331L14.3927 11.2779L14.3274 14.5555H12.9553H11.5831L11.5178 11.2909L11.4525 8.02631L11.0996 7.51907C10.5247 6.71267 9.92355 6.3745 8.91734 6.32248C8.19862 6.28346 7.95034 6.33549 7.46683 6.58261ZM22.6253 20.4734C22.6253 21.2668 21.985 22.1382 21.0572 22.6325C20.639 22.8536 20.2731 22.8796 17.1369 22.8796C13.8439 22.8796 13.6478 22.8666 13.1513 22.5934C12.2627 22.1252 11.6485 21.2538 11.6485 20.4734V20.0832H17.1369H22.6253V20.4734Z" fill="#FF7020"/>
<path d="M34.5563 6.58261C34.2296 6.7647 33.7984 7.15489 33.5763 7.45403L33.1842 8.01331L33.1189 22.5154L33.0536 37.0175L31.9559 37.3427C29.2117 38.123 27.16 39.7618 26.0101 42.064C25.0039 44.106 24.834 44.9514 24.834 47.9168C24.834 50.0889 24.8732 50.6092 25.1084 51.5586C26.389 56.5921 29.2247 60.0258 33.1842 61.3394C33.9552 61.5865 34.3734 61.6385 35.8631 61.6385C37.3528 61.6385 37.771 61.5865 38.542 61.3394C42.5015 60.0258 45.3372 56.5921 46.6178 51.5586C46.853 50.6092 46.8922 50.0889 46.8922 47.9168C46.8922 45.7318 46.853 45.2375 46.6047 44.3401C45.6247 40.7373 43.2855 38.3442 39.7703 37.3427L38.6726 37.0175L38.6073 22.5284L38.542 8.02631L38.1891 7.51907C37.6142 6.71267 37.0131 6.37451 36.0068 6.32248C35.2881 6.28346 35.0398 6.33549 34.5563 6.58261ZM38.4374 42.7143C39.901 43.2085 40.855 44.3401 41.2208 45.9789C41.4691 47.1104 41.3254 49.9458 40.9595 51.1034C40.28 53.2364 38.9863 55.0313 37.588 55.7337C36.7125 56.1759 35.0268 56.1889 34.1643 55.7467C32.6746 54.9793 31.4724 53.3145 30.7406 51.0384C30.4792 50.1799 30.44 49.8028 30.44 47.9168C30.44 45.8228 30.4531 45.7578 30.819 44.9514C31.4724 43.5467 32.8053 42.6363 34.5563 42.4021C34.5563 42.4021 37.6272 42.4542 38.4374 42.7143Z" fill="#FF7020"/>
<path d="M59.7515 6.53058C58.0788 7.40201 55.4914 9.76917 53.8972 11.8632C49.9246 17.1308 47.6116 24.5704 47.0759 33.87C46.8798 37.2776 46.9713 37.7849 47.873 38.6823C48.7485 39.5537 48.9837 39.5928 53.9495 39.5928H58.2095V49.6467V59.7136L58.5101 60.2599C58.6669 60.572 59.0589 61.0012 59.3725 61.2354C59.8822 61.5995 60.0129 61.6385 60.9407 61.6385C61.8293 61.6385 62.0122 61.5995 62.4696 61.2874C62.744 61.0923 63.123 60.7151 63.3059 60.442L63.6326 59.9607V34V8.02631L63.2798 7.51907C62.7048 6.69967 62.1037 6.3745 61.0975 6.32248C60.4441 6.29647 60.1174 6.33549 59.7515 6.53058ZM58.2095 24.7655V34H55.4392H52.6819L52.7734 32.6604C53.0086 29.0836 53.8841 24.7655 55.021 21.5789C55.7789 19.4719 57.8175 15.531 58.1442 15.531C58.1834 15.531 58.2095 19.68 58.2095 24.7655Z" fill="#FF7020"/>
</svg>
